<svg width="12" height="12" viewBox="0 0 12 12" fill="none" xmlns="http://www.w3.org/2000/svg">
<g clip-path="url(#clip0_3860_903)">
<path d="M6 11.25C3.10051 11.25 0.75 8.8995 0.75 6C0.75 3.10051 3.10051 0.75 6 0.75C8.8995 0.75 11.25 3.10051 11.25 6C11.25 8.8995 8.8995 11.25 6 11.25ZM6 12C9.31373 12 12 9.31373 12 6C12 2.68629 9.31373 0 6 0C2.68629 0 0 2.68629 0 6C0 9.31373 2.68629 12 6 12Z" fill="black" fill-opacity="0.3"/>
<path d="M8.22728 3.72725C8.22196 3.73255 8.21693 3.73817 8.21236 3.74407L5.60806 7.06255L4.03792 5.49241C3.81824 5.27275 3.46209 5.27275 3.24242 5.49241C3.02275 5.71209 3.02275 6.06824 3.24242 6.28791L5.22725 8.27272C5.44693 8.4924 5.80308 8.4924 6.02275 8.27272C6.02765 8.26785 6.03226 8.26267 6.03658 8.25727L9.03076 4.5146C9.24241 4.29436 9.23971 3.94423 9.02273 3.72725C8.80306 3.50758 8.44696 3.50758 8.22728 3.72725Z" fill="black" fill-opacity="0.3"/>
</g>
<defs>
<clipPath id="clip0_3860_903">
<rect width="12" height="12" fill="white"/>
</clipPath>
</defs>
</svg>
